<?xml version="1.0" encoding="utf-8"?>
<!-- Generator: Adobe Illustrator 18.0.0, SVG Export Plug-In . SVG Version: 6.00 Build 0)  -->
<!DOCTYPE svg PUBLIC "-//W3C//DTD SVG 1.1 Tiny//EN" "http://www.w3.org/Graphics/SVG/1.1/DTD/svg11-tiny.dtd">
<svg version="1.1" baseProfile="tiny" id="Capa_1" xmlns="http://www.w3.org/2000/svg" xmlns:xlink="http://www.w3.org/1999/xlink"
	 x="0px" y="0px" viewBox="0 0 325.8 287.8" xml:space="preserve">
<g>
	<g>
		<path fill="#D7DFE7" d="M173.6,7.1c39.3,3.9,70.2,30.4,85.3,67.7h8.4c-15.7-40.8-49.1-70-91.7-74.2c-27.4-2.7-54.3,5.3-77.6,21
			C120.6,8,147.3,4.5,173.6,7.1z"/>
		<path fill="#D7DFE7" d="M130.1,276.6c-39.4-3.9-75-23.1-90.3-60c-1.1-2-2.1-3.9-3-6c15.3,42.1,49.2,72.3,92.6,76.6
			c52.3,5.2,103.1-28.8,129.4-81h-10.1C223.2,252,177.3,281.3,130.1,276.6z"/>
		<path fill="#D7DFE7" d="M77.5,38.4c6.6-5.5,13.7-10.3,21.1-14.2c-5,2.1-9.8,4.8-14.4,8.1C81.9,34.2,79.7,36.2,77.5,38.4z"/>
		<path fill="#AFC0D0" d="M80.1,35.4c1.3-1.1,2.7-2.2,4.1-3.2c4.4-3.9,9.1-7.4,13.9-10.7C91.7,25.4,85.7,29.9,80.1,35.4z"/>
		<path fill="#AFC0D0" d="M157.3,11.9c-20.4-2-40.5,2.6-58.6,12.3c17.8-7.6,38-8.4,57.7-6.4c33.9,3.4,60.9,25.5,75,56.9h6.7
			C223.3,40.1,194.1,15.6,157.3,11.9z"/>
		<path fill="#AFC0D0" d="M115.8,269.4c43.7,4.3,86.2-21.7,110.9-63.1h-8.8c-23.6,35.5-61.6,57.4-100.5,53.5
			c-33.3-3.3-64.9-16.6-79.2-47.2c0.5,1.4,1.1,2.7,1.7,4C55.6,245.9,82.6,266.1,115.8,269.4z"/>
		<path fill="#AFC0D0" d="M130.1,276.6c47.2,4.7,93.1-24.5,118.5-70.3h-22c-24.7,41.4-67.2,67.5-110.9,63.1
			c-33.2-3.3-60.2-23.5-76-52.8C55.2,253.5,90.8,272.7,130.1,276.6z"/>
		<path fill="#AFC0D0" d="M157.3,11.9c36.9,3.7,66.1,28.2,80.7,62.8h20.9C243.8,37.5,212.9,11,173.6,7.1c-26.3-2.6-53,0.9-75.5,14.5
			c-4.8,3.2-9.4,6.8-13.9,10.7c4.6-3.3,9.4-5.9,14.4-8.1C116.8,14.5,136.9,9.9,157.3,11.9z"/>
	</g>
	<g>
		<path fill="#DBDC0D" stroke="#FFFFFF" stroke-width="2" stroke-miterlimit="10" d="M113.4,240.8c-56.5-7.4-92.4-59.8-80.3-117.1
			C45.2,66.5,100.9,26,157.3,33.4c33,4.3,58.9,24.9,72.4,51.9c-13.4-34.8-44.4-61.7-84.8-67C82.1,10.1,20.1,55.1,6.6,118.9
			C-7,182.7,33.1,241.1,96,249.3c33.4,4.4,66.5-6.3,92.3-26.7C166.5,237.1,140,244.3,113.4,240.8z"/>
		<path fill="#8F9021" d="M114.4,236.1c-53.1-7-86.9-56.2-75.5-110c11.4-53.8,63.7-91.8,116.8-84.9c31,4.1,60.1,16.2,72.8,41.5
			C215.9,50,182,32,144.1,27C84.9,19.2,26.7,61.6,14,121.5C1.3,181.5,38.9,236.3,98.1,244.1c31.4,4.1,63.5,0.1,87.7-19.2
			C165.3,238.6,139.4,239.4,114.4,236.1z"/>
	</g>
	<g>
		<path fill="#D7DFE7" d="M57.4,114.2l24.9-30.8h99c0,0,33.3,3.2,34.3,40.3c0,0,3.3,22.6-27.7,35.5l32.2,38.3h-44.4l-27.9-29.7H94.9
			v29.7H57.4v-60.2h109.9c0,0,10.3-1.8,10.5-11.7c0.2-9.9-6.4-11.6-6.4-11.6H57.4z"/>
		<path fill="#DBDC0D" d="M201.3,83.4h117.3l-23.4,31.9h-73.1C222.1,115.3,219.3,95.3,201.3,83.4z"/>
		<path fill="#DBDC0D" d="M222.9,128.8H313l-18.5,25.9h-71.6v15.7h95.7L297,197.6h-65.7l-31-38.3
			C200.3,159.2,222.1,156.2,222.9,128.8z"/>
	</g>
</g>
</svg>
