<svg xmlns="http://www.w3.org/2000/svg" viewBox="0 0 29 32"><g id="Layer_2" data-name="Layer 2"><g id="Layer_1-2" data-name="Layer 1"><path d="M28.53,8.1a1.39,1.39,0,0,0-.06-.19.79.79,0,0,0-.17-.19A4,4,0,0,0,27,6.52L16.48.53a4,4,0,0,0-4,0L7.58,3.34A.89.89,0,0,0,7,3.66L2,6.52A3.84,3.84,0,0,0,.69,7.73a.71.71,0,0,0-.16.18,1,1,0,0,0-.06.18A3.91,3.91,0,0,0,0,9.94v12a4,4,0,0,0,2,3.41l10.54,6a3.85,3.85,0,0,0,1.49.49.83.83,0,0,0,1,0,3.85,3.85,0,0,0,1.49-.49l10.54-6a4,4,0,0,0,2-3.41h0v-12A3.9,3.9,0,0,0,28.53,8.1ZM13.47,2.16a2,2,0,0,1,1-.28,2,2,0,0,1,1,.28l10.54,6,0,0L21.29,11,9.7,4.3ZM7.8,5.38,19.4,12l-4.9,2.83L2.89,8.18l0,0ZM2.92,23.72a2.08,2.08,0,0,1-1-1.78v-12s0-.1,0-.15L13.56,16.5V29.75l-.1,0Zm24.19-1.78a2.08,2.08,0,0,1-1,1.78l-10.55,6-.08,0V16.5L27.09,9.79c0,.05,0,.1,0,.15Z"/></g></g></svg>