<svg xmlns="http://www.w3.org/2000/svg" viewBox="0 0 23 34"><g id="Layer_2" data-name="Layer 2"><g id="Layer_1-2" data-name="Layer 1"><g id="zap"><path d="M9.65,34a1.06,1.06,0,0,1-.31,0,1,1,0,0,1-.69-1.06L10.08,20,1.13,21.19a1,1,0,0,1-1-1.51L11.93.48a1,1,0,0,1,1.84.63L12.38,13.25l9.35-2.6A1,1,0,0,1,22.8,11a1,1,0,0,1,.05,1.13l-.49.78L10.52,33.5A1,1,0,0,1,9.65,34Zm1.56-16.12a1,1,0,0,1,.7.28,1,1,0,0,1,.3.83l-1,9.36,8.7-15.11-8.39,2.33a1,1,0,0,1-1.26-1.07l1-9.13L3,18.94l8.14-1.06Z"/></g></g></g></svg>