<svg xmlns="http://www.w3.org/2000/svg" viewBox="0 0 16 16"><g id="Layer_2" data-name="Layer 2"><g id="Layer_1-2" data-name="Layer 1"><g id="user"><g id="Trazado_7" data-name="Trazado 7"><path d="M15,16a1,1,0,0,1-1-.93,2.45,2.45,0,0,0-2.52-2.38h-7A2.45,2.45,0,0,0,2,15.07,1,1,0,0,1,1,16a1,1,0,0,1-1-.93,4.39,4.39,0,0,1,4.49-4.25h7A4.39,4.39,0,0,1,16,15.07,1,1,0,0,1,15,16Z"/></g><g id="Elipse_1" data-name="Elipse 1"><path d="M8,10.25a5.13,5.13,0,1,1,5.13-5.12A5.12,5.12,0,0,1,8,10.25ZM8,1.86a3.27,3.27,0,1,0,3.26,3.27A3.27,3.27,0,0,0,8,1.86Z"/></g></g></g></g></svg>