<svg xmlns="http://www.w3.org/2000/svg" viewBox="0 0 34 34"><g id="Layer_2" data-name="Layer 2"><g id="Layer_1-2" data-name="Layer 1"><g id="Elipse_8" data-name="Elipse 8"><path d="M17,24a7,7,0,1,1,7-7A7,7,0,0,1,17,24Zm0-12a5,5,0,1,0,5,5A5,5,0,0,0,17,12Z"/></g><g id="Trazado_7943" data-name="Trazado 7943"><path d="M17.12,34a3.91,3.91,0,0,1-3.91-3.91V30a1.37,1.37,0,0,0-.92-1.26,1.4,1.4,0,0,0-1.6.26,4,4,0,0,1-4.62.86A3.92,3.92,0,0,1,5,23.6l.1-.11a1.41,1.41,0,0,0,.49-1.09A1.46,1.46,0,0,0,4.15,21,4.06,4.06,0,0,1,0,17.29a3.93,3.93,0,0,1,1.08-2.88,3.88,3.88,0,0,1,2.83-1.2H4a1.4,1.4,0,0,0,1.26-.92,1.41,1.41,0,0,0-.25-1.6,4,4,0,0,1-.9-4.6A3.91,3.91,0,0,1,10.37,5l.21.21a1.41,1.41,0,0,0,1.54.27.77.77,0,0,1,.27-.08,1.4,1.4,0,0,0,.7-1.21A4.07,4.07,0,0,1,16.82,0,3.93,3.93,0,0,1,19.7,1.08a3.89,3.89,0,0,1,1.21,2.83V4a1.37,1.37,0,0,0,.42,1,1.45,1.45,0,0,0,2,0,4,4,0,0,1,4.62-.87A3.93,3.93,0,0,1,29,10.4l-.18.18a1.39,1.39,0,0,0-.27,1.53,1.29,1.29,0,0,1,.08.28,1.38,1.38,0,0,0,1.21.7A4.06,4.06,0,0,1,34,16.82a3.93,3.93,0,0,1-1.08,2.88,3.89,3.89,0,0,1-2.83,1.21H30a1.39,1.39,0,0,0-1.28.85h0A1.4,1.4,0,0,0,29,23.31a4,4,0,0,1,.87,4.62A4,4,0,0,1,27,30.05a3.9,3.9,0,0,1-3.36-1l-.1-.1a1.39,1.39,0,0,0-1.09-.48A1.44,1.44,0,0,0,21,29.85,4.08,4.08,0,0,1,17.3,34Zm-5.44-7.44a3.26,3.26,0,0,1,1.36.29,3.34,3.34,0,0,1,2.17,3.09v.15a1.88,1.88,0,0,0,.59,1.38,1.94,1.94,0,0,0,1.41.53A2,2,0,0,0,19,29.9a3.46,3.46,0,0,1,3.17-3.46,3.26,3.26,0,0,1,2.66,1l.08.08a1.91,1.91,0,0,0,1.69.56A1.94,1.94,0,0,0,28.05,27a2,2,0,0,0-.46-2.25A3.42,3.42,0,0,1,26.85,21,3.38,3.38,0,0,1,30,18.91h.13a1.91,1.91,0,0,0,1.91-2,2,2,0,0,0-2.1-1.82A3.39,3.39,0,0,1,26.73,13a.84.84,0,0,1-.08-.31,3.38,3.38,0,0,1,.76-3.55l.09-.09a2,2,0,0,0,.58-1.71A1.93,1.93,0,0,0,27,6a2,2,0,0,0-2.24.46,3.48,3.48,0,0,1-4.71.2A3.34,3.34,0,0,1,18.91,4V3.91a1.91,1.91,0,0,0-2-1.91,2,2,0,0,0-1.82,2.1A3.4,3.4,0,0,1,13,7.27a1.09,1.09,0,0,1-.31.08,3.4,3.4,0,0,1-3.55-.76l-.09-.1L9,6.41a1.87,1.87,0,0,0-1.64-.5A2,2,0,0,0,5.93,7a2,2,0,0,0,.49,2.25A3.41,3.41,0,0,1,7.16,13a3.38,3.38,0,0,1-3.1,2.17H3.91a1.88,1.88,0,0,0-1.38.59A1.92,1.92,0,0,0,2,17.2,2,2,0,0,0,4.1,19,3.47,3.47,0,0,1,7.57,22.2a3.27,3.27,0,0,1-1,2.65l-.08.08a2,2,0,0,0-.56,1.7A1.92,1.92,0,0,0,7,28a2,2,0,0,0,2.24-.46A3.5,3.5,0,0,1,11.68,26.56Zm16.08-5.2h0Z"/></g></g></g></svg>