<svg xmlns="http://www.w3.org/2000/svg" viewBox="0 0 32 24"><g id="Layer_2" data-name="Layer 2"><g id="Layer_1-2" data-name="Layer 1"><g id="wifi"><g id="Trazado_23" data-name="Trazado 23"><path d="M26.08,13a.9.9,0,0,1-.6-.23,14.35,14.35,0,0,0-18.84,0,.92.92,0,0,1-1.33-.12,1,1,0,0,1,.12-1.37,16.19,16.19,0,0,1,21.25,0,1,1,0,0,1,.12,1.37A.93.93,0,0,1,26.08,13Z"/></g><g id="Trazado_24" data-name="Trazado 24"><path d="M31.06,7.81a.93.93,0,0,1-.62-.24,21.35,21.35,0,0,0-28.88,0A.91.91,0,0,1,.24,7.48,1,1,0,0,1,.32,6.11a23.17,23.17,0,0,1,31.36,0,1,1,0,0,1,.08,1.37A.9.9,0,0,1,31.06,7.81Z"/></g><g id="Trazado_25" data-name="Trazado 25"><path d="M21,18.28a.9.9,0,0,1-.54-.18,7.38,7.38,0,0,0-8.8,0,.93.93,0,0,1-1.32-.23,1,1,0,0,1,.23-1.36,9.24,9.24,0,0,1,11,0,1,1,0,0,1,.22,1.36A.94.94,0,0,1,21,18.28Z"/></g><g id="Línea_9" data-name="Línea 9"><path d="M16,24a1,1,0,0,1,0-1.95h0A1,1,0,0,1,16,24Z"/></g></g></g></g></svg>