<svg xmlns="http://www.w3.org/2000/svg" viewBox="0 0 32 26"><g id="Layer_2" data-name="Layer 2"><g id="Layer_1-2" data-name="Layer 1"><path d="M.94,11.24H5.59a.92.92,0,1,0,0-1.84H3.32L8,5.12a11.43,11.43,0,0,1,4.25-2.63,11.55,11.55,0,0,1,8.7.45,11.19,11.19,0,0,1,5.83,6.35.94.94,0,0,0,1.2.56.92.92,0,0,0,.57-1.18,13,13,0,0,0-6.79-7.39A13.41,13.41,0,0,0,6.65,3.8L1.88,8.19V5.77a.93.93,0,0,0-.94-.92A.93.93,0,0,0,0,5.77v4.55a.5.5,0,0,0,0,.13.78.78,0,0,0,0,.21.71.71,0,0,0,.12.18A.26.26,0,0,0,.26,11h0a.9.9,0,0,0,.3.21h0A.94.94,0,0,0,.94,11.24Z"/><path d="M32,15.55a.79.79,0,0,0,0-.2,1.13,1.13,0,0,0-.13-.2.47.47,0,0,0-.06-.09h0a.79.79,0,0,0-.23-.16l-.07-.05a.86.86,0,0,0-.17,0,.58.58,0,0,0-.18,0h-5a.92.92,0,1,0,0,1.84h2.58L24,20.89A11.55,11.55,0,0,1,8,20.89a11.34,11.34,0,0,1-2.69-4.17.94.94,0,0,0-1.2-.56.92.92,0,0,0-.57,1.18A13.07,13.07,0,0,0,6.62,22.2a13.45,13.45,0,0,0,18.73,0l4.77-4.39v2.73a.94.94,0,0,0,1.88,0V15.69A.7.7,0,0,0,32,15.55Z"/></g></g></svg>