<svg xmlns="http://www.w3.org/2000/svg" viewBox="0 0 32 32"><g id="Layer_2" data-name="Layer 2"><g id="Layer_1-2" data-name="Layer 1"><g id="phone"><path d="M28,32l-.36,0A31.07,31.07,0,0,1,14.18,27.2a30.54,30.54,0,0,1-9.37-9.36A31,31,0,0,1,0,4.33,3.93,3.93,0,0,1,1.13,1.19,4,4,0,0,1,4,0h4.6a4,4,0,0,1,3.92,3.41,19.21,19.21,0,0,0,1,4.05,4,4,0,0,1-.89,4.18L11.25,13a.12.12,0,0,0,0,.15,23.26,23.26,0,0,0,7.62,7.6.12.12,0,0,0,.15,0l1.34-1.33a4,4,0,0,1,4.19-.89,18.6,18.6,0,0,0,4,1,4,4,0,0,1,3.42,4V28a4,4,0,0,1-4,4ZM8.54,1.88H3.78A2.09,2.09,0,0,0,1.89,4.15a29.17,29.17,0,0,0,4.5,12.68,28.9,28.9,0,0,0,8.8,8.78,29.26,29.26,0,0,0,12.67,4.5H28A2.08,2.08,0,0,0,30.11,28V23.47a2.06,2.06,0,0,0-1.79-2.11,20.2,20.2,0,0,1-4.44-1.11,2.16,2.16,0,0,0-2.27.52L20,22.37c-.54.53-1.05.61-1.46.37a25.21,25.21,0,0,1-9.34-9.31,1.08,1.08,0,0,1,.18-1.27l1.86-1.85a2.08,2.08,0,0,0,.47-2.19A20.25,20.25,0,0,1,10.6,3.66,2.09,2.09,0,0,0,8.54,1.88Z"/></g></g></g></svg>