<svg xmlns="http://www.w3.org/2000/svg" viewBox="0 0 32 28"><g id="Layer_2" data-name="Layer 2"><g id="Layer_1-2" data-name="Layer 1"><g id="heart"><path d="M16,28a1,1,0,0,1-.67-.27L2.53,15.05a8.82,8.82,0,0,1,0-12.36A9,9,0,0,1,15.1,2.57l.87.87.85-.85h0a9,9,0,0,1,12.57,0l0,0a8.77,8.77,0,0,1,0,12.44L16.63,27.73A.93.93,0,0,1,16,28ZM8.87,1.92a7,7,0,0,0-5,11.82l12.1,12,12.1-12a6.92,6.92,0,0,0,0-9.83l.67-.66-.67.66a7.05,7.05,0,0,0-9.89,0h0L16.63,5.42a.94.94,0,0,1-1.33,0L13.77,3.9A7,7,0,0,0,8.87,1.92Z"/></g></g></g></svg>