<svg xmlns="http://www.w3.org/2000/svg" viewBox="0 0 26 32"><g id="Layer_2" data-name="Layer 2"><g id="Layer_1-2" data-name="Layer 1"><path d="M25.93,11.12a.9.9,0,0,0-.21-.3L15.17.28a.9.9,0,0,0-.3-.21A1.1,1.1,0,0,0,14.51,0H2.59A2.59,2.59,0,0,0,0,2.59V29.45A2.56,2.56,0,0,0,2.56,32H23.45A2.56,2.56,0,0,0,26,29.45v-18A1.1,1.1,0,0,0,25.93,11.12ZM15.45,3.21l7.33,7.33H15.45Zm8,26.91H2.56a.68.68,0,0,1-.68-.67V2.59a.71.71,0,0,1,.71-.71h11v9.6a.94.94,0,0,0,.94.94h9.61v17A.67.67,0,0,1,23.45,30.12Z"/></g></g></svg>