<svg xmlns="http://www.w3.org/2000/svg" viewBox="0 0 32 32"><g id="Layer_2" data-name="Layer 2"><g id="Layer_1-2" data-name="Layer 1"><path d="M16,0A16,16,0,1,0,32,16,16,16,0,0,0,16,0ZM30.07,15.06H22.9a24,24,0,0,0-4.75-13A14.13,14.13,0,0,1,30.07,15.06ZM11,16.94H21a22.05,22.05,0,0,1-5,12.69A22.07,22.07,0,0,1,11,16.94Zm0-1.88A22.05,22.05,0,0,1,16,2.37a22.07,22.07,0,0,1,5,12.69Zm2.87-13a24,24,0,0,0-4.75,13H1.93A14.13,14.13,0,0,1,13.85,2.06ZM1.93,16.94H9.1a24,24,0,0,0,4.75,13A14.13,14.13,0,0,1,1.93,16.94Zm16.22,13a24,24,0,0,0,4.75-13h7.17A14.13,14.13,0,0,1,18.15,29.94Z"/></g></g></svg>