<svg xmlns="http://www.w3.org/2000/svg" viewBox="0 0 32 32"><g id="Layer_2" data-name="Layer 2"><g id="Layer_1-2" data-name="Layer 1"><path d="M31.06,7.53H26.52A4.69,4.69,0,0,0,22.78,0C19.08,0,17,3,16,5.44,15,3,12.92,0,9.22,0A4.69,4.69,0,0,0,5.48,7.53H.94A.94.94,0,0,0,0,8.47V16a.94.94,0,0,0,.94.94H3V31.06A.94.94,0,0,0,4,32h24.1a.94.94,0,0,0,.94-.94V16.94h2.07A.94.94,0,0,0,32,16V8.47A.94.94,0,0,0,31.06,7.53ZM22.78,1.88a2.83,2.83,0,0,1,0,5.65H17.23C17.85,5.6,19.48,1.88,22.78,1.88ZM6.4,4.71A2.83,2.83,0,0,1,9.22,1.88c3.3,0,4.93,3.72,5.55,5.65H9.22A2.83,2.83,0,0,1,6.4,4.71ZM1.88,9.41H15.06v5.65H1.88Zm3,7.53H15.06V30.12H4.89ZM27.11,30.12H16.94V16.94H27.11Zm3-15.06H16.94V9.41H30.12Z"/></g></g></svg>