<svg xmlns="http://www.w3.org/2000/svg" viewBox="0 0 23 32"><g id="Layer_2" data-name="Layer 2"><g id="Layer_1-2" data-name="Layer 1"><g id="ico_movil" data-name="ico movil"><g id="Rectángulo_7" data-name="Rectángulo 7"><path d="M20.35,32H2.65A2.64,2.64,0,0,1,0,29.37V2.63A2.64,2.64,0,0,1,2.65,0h17.7A2.64,2.64,0,0,1,23,2.63V29.37A2.64,2.64,0,0,1,20.35,32ZM2.65,1.43a1.21,1.21,0,0,0-1.21,1.2V29.37a1.21,1.21,0,0,0,1.21,1.2h17.7a1.21,1.21,0,0,0,1.21-1.2V2.63a1.21,1.21,0,0,0-1.21-1.2Z"/></g><g id="Línea_2" data-name="Línea 2"><path d="M11.52,26.12a1,1,0,1,1,0-1.91h0a1,1,0,1,1,0,1.91Z"/></g></g></g></g></svg>