<svg xmlns="http://www.w3.org/2000/svg" viewBox="0 0 26 32"><g id="Layer_2" data-name="Layer 2"><g id="Layer_1-2" data-name="Layer 1"><g id="map-pin"><g id="Trazado_7972" data-name="Trazado 7972"><path d="M13,32a.91.91,0,0,1-.52-.16C12,31.49,0,23.23,0,13.26A13.15,13.15,0,0,1,13,0,13.15,13.15,0,0,1,26,13.26c0,10-12,18.23-12.48,18.58A.91.91,0,0,1,13,32ZM13,1.88A11.28,11.28,0,0,0,1.86,13.26c0,7.88,8.88,15,11.14,16.64,2.26-1.67,11.14-8.77,11.14-16.64A11.28,11.28,0,0,0,13,1.88Z"/></g><g id="Elipse_204" data-name="Elipse 204"><path d="M13,17.65a4.71,4.71,0,1,1,4.62-4.71A4.67,4.67,0,0,1,13,17.65Zm0-7.53a2.82,2.82,0,1,0,2.76,2.82A2.79,2.79,0,0,0,13,10.12Z"/></g></g></g></g></svg>