<svg xmlns="http://www.w3.org/2000/svg" viewBox="0 0 32 32"><g id="Layer_2" data-name="Layer 2"><g id="Layer_1-2" data-name="Layer 1"><g id="info"><g id="Elipse_213" data-name="Elipse 213"><path d="M16,32A16,16,0,1,1,32,16,16,16,0,0,1,16,32ZM16,1.88A14.12,14.12,0,1,0,30.12,16,14.14,14.14,0,0,0,16,1.88Z"/></g><g id="Línea_119" data-name="Línea 119"><path d="M16,22.66a.91.91,0,0,1-1-.8v-6.4a.92.92,0,0,1,1-.8.91.91,0,0,1,1,.8v6.4A.91.91,0,0,1,16,22.66Z"/></g><g id="Línea_120" data-name="Línea 120"><path d="M16,11.33a1,1,0,0,1-1-1,1,1,0,0,1,1-1h0a1,1,0,1,1,0,2Z"/></g></g></g></g></svg>