<svg xmlns="http://www.w3.org/2000/svg" viewBox="0 0 32 32"><g id="Layer_2" data-name="Layer 2"><g id="Layer_1-2" data-name="Layer 1"><g id="smile"><g id="Elipse_203" data-name="Elipse 203"><path d="M16,32A16,16,0,1,1,32,16,16,16,0,0,1,16,32ZM16,1.88A14.12,14.12,0,1,0,30.12,16,14.14,14.14,0,0,0,16,1.88Z"/></g><g id="Trazado_7971" data-name="Trazado 7971"><path d="M16,24A9.07,9.07,0,0,1,9.24,20.6a.94.94,0,0,1,1.47-1.18A7.16,7.16,0,0,0,16,22.08a7.13,7.13,0,0,0,5.26-2.66.94.94,0,0,1,1.47,1.18A9.05,9.05,0,0,1,16,24Z"/></g><g id="Línea_96" data-name="Línea 96"><path d="M11.5,14.36a1.88,1.88,0,0,1,0-3.76h0a1.88,1.88,0,1,1,0,3.76Z"/></g><g id="Línea_97" data-name="Línea 97"><path d="M20.53,14.36a1.88,1.88,0,1,1,0-3.76h0a1.88,1.88,0,0,1,0,3.76Z"/></g></g></g></g></svg>