<svg xmlns="http://www.w3.org/2000/svg" viewBox="0 0 22 32"><g id="Layer_2" data-name="Layer 2"><g id="Layer_1-2" data-name="Layer 1"><g id="Grupo_399" data-name="Grupo 399"><g id="Grupo_120" data-name="Grupo 120"><path d="M15.58,12.55H11.92V8.78a.92.92,0,1,0-1.84,0v3.77H6.42a.94.94,0,0,0,0,1.88h3.66V18.2a.92.92,0,1,0,1.84,0V14.43h3.66a.94.94,0,0,0,0-1.88Z"/><g id="Rectángulo_13188" data-name="Rectángulo 13188"><path d="M19.28,32H2.72A2.78,2.78,0,0,1,0,29.18V2.82A2.78,2.78,0,0,1,2.72,0H19.28A2.78,2.78,0,0,1,22,2.82V29.18A2.78,2.78,0,0,1,19.28,32ZM2.72,1.88a.92.92,0,0,0-.89.94V29.18a.92.92,0,0,0,.89.94H19.28a.92.92,0,0,0,.89-.94V2.82a.92.92,0,0,0-.89-.94Z"/></g></g></g></g></g></svg>